# xmcd
#
# Track frame offsets:
#	150
#	15856
#	36126
#	61071
#	74832
#	92928
#	108375
#	136001
#	163265
#	205035
#
# Disc length: 3108 seconds
#
# Revision: 0
# Processed by: cddbd v1.5.1PL0 Copyright (c) Steve Scherf et al.
# Submitted via: dBpowerAMP V4.0
#
DISCID=820c220a
DTITLE=Dis*ka - We only Have Music
DYEAR=2005
DGENRE=Electronic
TTITLE0=Sneakers Make Me Depressive
TTITLE1=Reduced to My Dick
TTITLE2=Electronic partners
TTITLE3=We Only Got Music
TTITLE4=Mixtape for my Robot
TTITLE5=Glamour Is A Cold Drug
TTITLE6=Big Black Rainbow over my Life
TTITLE7=Babylondon
TTITLE8=I Just Don't Know How to Watch TV
TTITLE9=Media Cöntrol
EXTD=
EXTT0=
EXTT1=
EXTT2=
EXTT3=
EXTT4=
EXTT5=
EXTT6=
EXTT7=
EXTT8=
EXTT9=
PLAYORDER=
